<svg width="72" height="72" viewBox="0 0 72 72" fill="none" xmlns="http://www.w3.org/2000/svg">
<g clip-path="url(#clip0_65_114)">
<path d="M71.562 30.4385L41.5631 0.439498C41.2813 0.158399 40.8993 0.000764087 40.5012 0.00146719H1.50267C0.674274 6.0988e-05 0.00154915 0.670395 2.32749e-06 1.49879C-0.000700771 1.89815 0.157918 2.28134 0.440705 2.56342L69.438 71.5609C69.7199 71.842 70.1019 71.9996 70.5 71.9989C70.6966 71.9988 70.8914 71.9601 71.073 71.8849C71.634 71.653 71.9999 71.106 72 70.4989V31.5004C72.0007 31.1023 71.8432 30.7203 71.562 30.4385Z" fill="#009688"/>
<path d="M31.5016 24.0005C30.6732 24.0006 30.0014 23.3293 30.0013 22.5009C30.0013 22.4001 30.0114 22.2994 30.0317 22.2005L32.0596 12.0579L26.5637 17.5628C25.9679 18.1383 25.0183 18.1217 24.4427 17.5259C23.8814 16.9446 23.8814 16.0231 24.4427 15.4419L33.4424 6.44226C34.0281 5.85644 34.9778 5.8563 35.5637 6.44198C35.9179 6.7962 36.072 7.30384 35.9743 7.79516L33.9464 17.9378L39.4452 12.4419C40.0206 11.8461 40.9702 11.8295 41.5662 12.4051C42.1621 12.9807 42.1786 13.9301 41.603 14.5261C41.5909 14.5386 41.5787 14.5508 41.5662 14.5629L32.5665 23.5626C32.284 23.8444 31.9007 24.002 31.5016 24.0005Z" fill="#FAFAFA"/>
<path d="M40.5013 33.0001C40.1032 33.0008 39.7212 32.8433 39.4394 32.5621L34.9395 28.0622C34.354 27.4765 34.354 26.5271 34.9395 25.9413L43.9392 16.9416C44.5249 16.3561 45.4743 16.3561 46.0602 16.9416L50.56 21.4414C51.1558 22.017 51.1723 22.9665 50.5968 23.5624C50.0213 24.1582 49.0718 24.1747 48.4759 23.5992C48.4634 23.5871 48.4511 23.5749 48.439 23.5624L45.0012 20.1216L38.1225 27.0003L41.5603 30.4381C42.1469 31.0231 42.148 31.9729 41.563 32.5594C41.2816 32.8415 40.8997 33.0001 40.5013 33.0001Z" fill="#FAFAFA"/>
<path d="M43.501 27.0005C43.1029 27.0012 42.7208 26.8437 42.439 26.5625L39.4392 23.5626C38.8638 22.9668 38.8802 22.0172 39.476 21.4416C40.0574 20.8803 40.9788 20.8803 41.56 21.4416L44.5599 24.4415C45.1447 25.0282 45.1433 25.9779 44.5565 26.5627C44.2764 26.8423 43.8968 26.9995 43.501 27.0005Z" fill="#FAFAFA"/>
<path d="M52.5008 44.9998C51.6724 44.9992 51.0013 44.3271 51.0019 43.4987C51.0021 43.338 51.0279 43.1784 51.0788 43.0258L53.1308 36.873L46.9779 38.9249C46.402 39.1118 45.77 38.9384 45.3699 38.4839C44.9733 38.0253 44.8916 37.3731 45.163 36.8309L51.1628 24.8314C51.533 24.0901 52.4343 23.7891 53.1758 24.1594C53.9172 24.5296 54.218 25.4309 53.8478 26.1724L49.4679 34.932L55.0326 33.0781C55.5722 32.9017 56.1651 33.0419 56.5686 33.441C56.9709 33.8427 57.1116 34.4376 56.9316 34.977L55.0776 40.5388L63.8373 36.1589C64.5786 35.7886 65.4799 36.0894 65.8502 36.8309C66.2205 37.5723 65.9197 38.4735 65.1782 38.8439L53.1789 44.8437C52.9682 44.9482 52.7359 45.0016 52.5008 44.9998Z" fill="#FAFAFA"/>
</g>
<defs>
<clipPath id="clip0_65_114">
<rect width="72" height="72" fill="white"/>
</clipPath>
</defs>
</svg>
