<svg width="32" height="32" viewBox="0 0 32 32" fill="none" xmlns="http://www.w3.org/2000/svg">
<rect y="0.89856" width="32" height="31.1014" fill="#12A3E6"/>
<path d="M25.8933 12.68C24.7982 12.5058 23.8898 12.4187 23.168 12.4187H22.048C21.9982 12.6924 21.9733 12.9538 21.9733 13.2027V22.2747C21.9733 23.2453 22.0604 24.1538 22.2347 25H19.8453C20.0196 24.1538 20.1067 23.2453 20.1067 22.2747V13.2027C20.1067 12.9538 20.0818 12.6924 20.032 12.4187H18.912C18.1902 12.4187 17.2818 12.5058 16.1867 12.68V11.2987H25.8933V12.68Z" fill="black"/>
<path d="M12.3516 10.252C12.2513 10.1882 12.0645 10.0286 11.791 9.77344C11.5176 9.51823 11.1986 9.39062 10.834 9.39062C9.37565 9.39062 8.22721 9.71875 7.38867 10.375C6.55013 11.0312 6.13086 11.8971 6.13086 12.9727C6.13086 14.1393 7.375 15.3698 9.86328 16.6641C10.0273 16.6641 10.2142 16.6823 10.4238 16.7188C10.6426 16.7552 11.0026 17.0195 11.5039 17.5117C12.0143 17.9948 12.4017 18.4323 12.666 18.8242C12.9303 19.207 13.1309 19.599 13.2676 20C13.4043 20.3919 13.4727 20.7839 13.4727 21.1758C13.4727 22.9076 13.0671 24.2474 12.2559 25.1953C11.4447 26.1432 10 26.9954 7.92188 27.752C7.8125 27.7155 7.71224 27.6973 7.62109 27.6973C7.47526 27.6973 7.24284 27.7747 6.92383 27.9297C6.61393 28.0938 5.97591 28.1758 5.00977 28.1758C4.66341 28.1758 4.41732 28.0299 4.27148 27.7383C4.13477 27.4557 4.06641 27.0319 4.06641 26.4668C4.06641 26.3118 4.13021 26.1523 4.25781 25.9883H4.36719C4.60417 25.9883 4.85026 26.1296 5.10547 26.4121C5.66146 26.5397 6.00326 26.6035 6.13086 26.6035C6.23112 26.6035 6.65951 26.5579 7.41602 26.4668C8.18164 26.3665 8.90169 26.1478 9.57617 25.8105C10.2598 25.4733 10.7246 25.1497 10.9707 24.8398C11.2168 24.5299 11.4583 24.1608 11.6953 23.7324C11.9323 23.2949 12.0508 22.7982 12.0508 22.2422C12.0508 21.4128 11.7956 20.6198 11.2852 19.8633C10.7839 19.0977 10.2324 18.6602 9.63086 18.5508V18.5098C9.63086 18.3548 9.42578 18.1589 9.01562 17.9219C7.41146 17.1927 6.28581 16.4727 5.63867 15.7617C5.00065 15.0417 4.68164 14.194 4.68164 13.2188C4.68164 12.8268 4.73177 12.444 4.83203 12.0703C4.94141 11.6966 5.09635 11.3411 5.29688 11.0039C5.4974 10.6576 5.74349 10.3431 6.03516 10.0605C6.33594 9.76888 6.73698 9.47721 7.23828 9.18555C7.73958 8.89388 8.09049 8.74805 8.29102 8.74805H8.71484C8.74219 8.72982 8.84245 8.625 9.01562 8.43359C9.2526 8.41536 9.52148 8.34245 9.82227 8.21484C10.123 8.08724 10.3145 8.00977 10.3965 7.98242C10.4876 8.03711 10.5514 8.11458 10.5879 8.21484C10.8431 8.16016 11.1029 8.13281 11.3672 8.13281H11.6543C12.0736 8.13281 12.3971 8.1875 12.625 8.29688C12.8529 8.40625 12.9668 8.63867 12.9668 8.99414C12.9668 9.28581 12.8984 9.5638 12.7617 9.82812C12.6341 10.0833 12.4974 10.2246 12.3516 10.252Z" fill="black"/>
</svg>
