<svg width="94" height="43" viewBox="0 0 94 43" fill="none" xmlns="http://www.w3.org/2000/svg">
<path d="M89.1042 0H4.89583C2.19194 0 0 1.8162 0 4.0566V32.0472C0 34.2876 2.19194 36.1038 4.89583 36.1038H89.1042C91.8081 36.1038 94 34.2876 94 32.0472V4.0566C94 1.8162 91.8081 0 89.1042 0Z" fill="#12A3E6"/>
<path d="M38.6901 12.2022C37.388 12.0306 36.3079 11.9448 35.4497 11.9448H34.1181C34.0589 12.2145 34.0293 12.4719 34.0293 12.7171V21.6546C34.0293 22.6109 34.1328 23.5059 34.34 24.3396H31.4991C31.7063 23.5059 31.8098 22.6109 31.8098 21.6546V12.7171C31.8098 12.4719 31.7802 12.2145 31.7211 11.9448H30.3894C29.5312 11.9448 28.4511 12.0306 27.149 12.2022V10.8414H38.6901V12.2022ZM50.5093 21.1765V22.9052C49.4141 23.9841 47.9199 24.5235 46.026 24.5235C44.132 24.5235 42.6524 23.9963 41.5871 22.942C40.5514 21.8876 40.0335 20.7229 40.0335 19.4478C40.0335 18.1483 40.5365 16.9713 41.5427 15.917C42.608 14.8626 44.0433 14.3355 45.8484 14.3355C47.6536 14.3355 49.089 14.9239 50.1544 16.1009C50.8349 16.9591 51.1751 18.0625 51.1751 19.4111L51.1306 19.9628H42.3861C42.4749 21.0171 42.8004 21.8018 43.3627 22.3167C44.0433 23.0278 45.0199 23.3833 46.2923 23.3833C48.0087 23.3833 49.3701 22.6477 50.3761 21.1765H50.5093ZM48.9557 18.8594C48.9557 17.8295 48.7189 17.0572 48.2454 16.5423C47.5648 15.8066 46.7214 15.4389 45.7153 15.4389C44.7387 15.4389 43.9545 15.8066 43.3627 16.5423C42.8004 17.0817 42.4749 17.854 42.3861 18.8594H48.9557ZM63.4275 21.1765V22.9052C62.3621 23.9841 60.9418 24.5235 59.1661 24.5235C57.4203 24.5235 56.0147 24.0086 54.9493 22.9787C53.9134 21.9489 53.3959 20.7842 53.3959 19.4846C53.3959 18.1606 53.8987 16.9713 54.9048 15.917C55.9701 14.8626 57.3909 14.3355 59.1661 14.3355C60.557 14.3355 61.7555 14.6787 62.7616 15.3653V17.756H62.673C62.436 17.2901 62.1257 16.8855 61.7408 16.5423C61.0603 15.8066 60.2168 15.4389 59.2107 15.4389C58.2046 15.4389 57.3757 15.8066 56.7251 16.5423C56.0739 17.1798 55.7483 18.1361 55.7483 19.4111C55.7483 20.6861 56.0739 21.6546 56.7251 22.3167C57.3165 23.0278 58.1307 23.3833 59.1661 23.3833C60.912 23.3833 62.3029 22.6477 63.3388 21.1765H63.4275ZM66.6347 24.3396C66.8124 23.4569 66.901 22.5619 66.901 21.6546V13.7838C66.901 12.9256 66.8124 12.0306 66.6347 11.0988L69.4312 10.6575C69.1943 11.4666 69.0763 12.3616 69.0763 13.3424V15.586C69.9046 14.7523 71.0885 14.3355 72.6272 14.3355C74.1954 14.3355 75.4384 14.8013 76.3559 15.7331C77.0364 16.4196 77.3767 17.3391 77.3767 18.4916V21.6546C77.3767 22.6109 77.4805 23.5059 77.6875 24.3396H74.891C75.0981 23.4569 75.2019 22.5619 75.2019 21.6546V18.4916C75.2019 17.5844 75.0389 16.9468 74.7133 16.579C74.1807 15.8189 73.3224 15.4389 72.1391 15.4389C70.9553 15.4389 70.0971 15.8189 69.5644 16.579C69.2388 16.9468 69.0763 17.5844 69.0763 18.4916V21.6546C69.0763 22.6109 69.1943 23.5059 69.4312 24.3396H66.6347Z" fill="black"/>
<path d="M21.4002 10.2738C21.2809 10.211 21.0588 10.0539 20.7337 9.80242C20.4085 9.551 20.0293 9.42528 19.5958 9.42528C17.8618 9.42528 16.4964 9.74851 15.4993 10.3951C14.5023 11.0416 14.0038 11.8946 14.0038 12.9542C14.0038 14.1036 15.4831 15.3158 18.4416 16.5909C18.6367 16.5909 18.8589 16.6088 19.1081 16.6447C19.3682 16.6807 19.7963 16.9411 20.3923 17.426C20.9992 17.9019 21.4598 18.3329 21.774 18.719C22.0883 19.0961 22.3267 19.4822 22.4893 19.8774C22.6519 20.2635 22.7331 20.6496 22.7331 21.0357C22.7331 22.7418 22.2509 24.0618 21.2864 24.9957C20.3219 25.9295 18.6042 26.7691 16.1333 27.5144C16.0033 27.4785 15.8841 27.4605 15.7757 27.4605C15.6023 27.4605 15.3259 27.5368 14.9467 27.6895C14.5782 27.8511 13.8196 27.932 12.6709 27.932C12.259 27.932 11.9665 27.7883 11.7931 27.5009C11.6305 27.2226 11.5492 26.805 11.5492 26.2483C11.5492 26.0956 11.6251 25.9385 11.7768 25.7769H11.9068C12.1886 25.7769 12.4812 25.9161 12.7847 26.1944C13.4457 26.3201 13.8521 26.383 14.0038 26.383C14.123 26.383 14.6324 26.3381 15.5319 26.2483C16.4422 26.1495 17.2983 25.934 18.1003 25.6018C18.9131 25.2695 19.4658 24.9508 19.7583 24.6455C20.051 24.3402 20.3381 23.9765 20.6199 23.5545C20.9017 23.1235 21.0426 22.6341 21.0426 22.0863C21.0426 21.2692 20.7391 20.488 20.1322 19.7427C19.5362 18.9884 18.8806 18.5574 18.1653 18.4496V18.4092C18.1653 18.2566 17.9215 18.0635 17.4338 17.83C15.5264 17.1117 14.188 16.4023 13.4186 15.7019C12.66 14.9925 12.2807 14.1574 12.2807 13.1966C12.2807 12.8105 12.3403 12.4334 12.4595 12.0652C12.5896 11.6971 12.7738 11.3469 13.0122 11.0146C13.2506 10.6734 13.5433 10.3636 13.89 10.0852C14.2477 9.79792 14.7245 9.51059 15.3206 9.22322C15.9166 8.93589 16.3338 8.79221 16.5722 8.79221H17.0761C17.1087 8.77428 17.2279 8.671 17.4338 8.48245C17.7155 8.46447 18.0352 8.39263 18.3929 8.26692C18.7505 8.1412 18.9781 8.0649 19.0756 8.03796C19.184 8.09184 19.2598 8.16814 19.3032 8.26692C19.6066 8.21305 19.9155 8.18611 20.2298 8.18611H20.5711C21.0696 8.18611 21.4543 8.23998 21.7253 8.34773C21.9962 8.45551 22.1317 8.68446 22.1317 9.03467C22.1317 9.322 22.0504 9.59586 21.8878 9.8563C21.7361 10.1077 21.5736 10.2469 21.4002 10.2738Z" fill="black"/>
</svg>
